%TF.GenerationSoftware,KiCad,Pcbnew,(6.0.11-0)*%
%TF.CreationDate,2023-11-26T18:13:28+01:00*%
%TF.ProjectId,Layblar_PCB,4c617962-6c61-4725-9f50-43422e6b6963,rev?*%
%TF.SameCoordinates,Original*%
%TF.FileFunction,Copper,L4,Bot*%
%TF.FilePolarity,Positive*%
%FSLAX46Y46*%
G04 Gerber Fmt 4.6, Leading zero omitted, Abs format (unit mm)*
G04 Created by KiCad (PCBNEW (6.0.11-0)) date 2023-11-26 18:13:28*
%MOMM*%
%LPD*%
G01*
G04 APERTURE LIST*
%TA.AperFunction,ComponentPad*%
%ADD10R,1.520000X1.520000*%
%TD*%
%TA.AperFunction,ComponentPad*%
%ADD11C,1.520000*%
%TD*%
%TA.AperFunction,ComponentPad*%
%ADD12O,1.000000X1.600000*%
%TD*%
%TA.AperFunction,ComponentPad*%
%ADD13O,1.000000X2.100000*%
%TD*%
%TA.AperFunction,ViaPad*%
%ADD14C,1.600000*%
%TD*%
%TA.AperFunction,ViaPad*%
%ADD15C,1.200000*%
%TD*%
%TA.AperFunction,Conductor*%
%ADD16C,0.400000*%
%TD*%
G04 APERTURE END LIST*
D10*
%TO.P,J1,1*%
%TO.N,unconnected-(J1-Pad1)*%
X42057500Y-27240000D03*
D11*
%TO.P,J1,2*%
%TO.N,unconnected-(J1-Pad2)*%
X40787500Y-24700000D03*
%TO.P,J1,3*%
%TO.N,Net-(J1-Pad3)*%
X39517500Y-27240000D03*
%TO.P,J1,4*%
%TO.N,Net-(J1-Pad4)*%
X38247500Y-24700000D03*
%TO.P,J1,5*%
%TO.N,unconnected-(J1-Pad5)*%
X36977500Y-27240000D03*
%TO.P,J1,6*%
%TO.N,unconnected-(J1-Pad6)*%
X35707500Y-24700000D03*
%TD*%
D12*
%TO.P,J2,S1,SHIELD*%
%TO.N,GND*%
X58857500Y-13500000D03*
X50217500Y-13500000D03*
D13*
X58857500Y-17680000D03*
X50217500Y-17680000D03*
%TD*%
D14*
%TO.N,GND*%
X43000000Y-68250000D03*
X32500000Y-68250000D03*
D15*
%TO.N,D-*%
X57500000Y-26000000D03*
X39500000Y-62750000D03*
%TO.N,D+*%
X55000000Y-26000000D03*
X38500000Y-64500000D03*
D14*
%TO.N,+3.3V*%
X43250000Y-42500000D03*
X56750000Y-66750000D03*
X52500000Y-51250000D03*
X60750000Y-39250000D03*
X48500000Y-59750000D03*
X40500000Y-49250000D03*
D15*
%TO.N,EN*%
X37500000Y-72500000D03*
X51000000Y-66500000D03*
%TD*%
D16*
%TO.N,GND*%
X43000000Y-68250000D02*
X32500000Y-68250000D01*
%TO.N,D-*%
X57500000Y-44500000D02*
X39500000Y-62500000D01*
X57500000Y-26000000D02*
X57500000Y-44500000D01*
X39500000Y-62500000D02*
X39500000Y-62750000D01*
%TO.N,D+*%
X55000000Y-26000000D02*
X55000000Y-43750000D01*
X38500000Y-60250000D02*
X38500000Y-64500000D01*
X55000000Y-43750000D02*
X38500000Y-60250000D01*
%TO.N,EN*%
X45000000Y-72500000D02*
X51000000Y-66500000D01*
X37500000Y-72500000D02*
X45000000Y-72500000D01*
%TD*%
%TA.AperFunction,Conductor*%
%TO.N,+3.3V*%
G36*
X60434487Y-10295534D02*
G01*
X60449320Y-10297844D01*
X60449324Y-10297844D01*
X60458193Y-10299225D01*
X60478651Y-10296550D01*
X60500477Y-10295606D01*
X60850434Y-10310883D01*
X60861383Y-10311841D01*
X60987963Y-10328505D01*
X61238965Y-10361548D01*
X61249774Y-10363454D01*
X61411770Y-10399367D01*
X61621578Y-10445880D01*
X61632195Y-10448724D01*
X61862356Y-10521292D01*
X61995417Y-10563245D01*
X62005736Y-10567001D01*
X62181660Y-10639871D01*
X62357578Y-10712738D01*
X62367540Y-10717383D01*
X62705350Y-10893234D01*
X62714870Y-10898731D01*
X63036049Y-11103344D01*
X63045053Y-11109648D01*
X63347192Y-11341486D01*
X63347197Y-11341490D01*
X63355611Y-11348551D01*
X63410937Y-11399247D01*
X63636390Y-11605837D01*
X63644159Y-11613606D01*
X63787551Y-11770091D01*
X63901444Y-11894383D01*
X63908510Y-11902803D01*
X64140352Y-12204947D01*
X64146656Y-12213951D01*
X64351269Y-12535130D01*
X64356766Y-12544650D01*
X64532617Y-12882460D01*
X64537262Y-12892422D01*
X64579927Y-12995425D01*
X64644050Y-13150231D01*
X64682997Y-13244259D01*
X64686757Y-13254589D01*
X64801276Y-13617805D01*
X64804120Y-13628422D01*
X64886545Y-14000223D01*
X64888453Y-14011041D01*
X64938159Y-14388617D01*
X64939117Y-14399566D01*
X64953836Y-14736735D01*
X64954069Y-14742083D01*
X64952689Y-14766962D01*
X64950775Y-14779255D01*
X64953577Y-14800684D01*
X64954877Y-14810628D01*
X64955940Y-14827039D01*
X64947616Y-28211542D01*
X64919374Y-73624078D01*
X64899330Y-73692187D01*
X64845645Y-73738646D01*
X64793374Y-73750000D01*
X38019611Y-73750000D01*
X37951490Y-73729998D01*
X37904997Y-73676342D01*
X37894893Y-73606068D01*
X37924387Y-73541488D01*
X37958045Y-73514066D01*
X38130551Y-73417458D01*
X38287186Y-73287186D01*
X38314845Y-73253929D01*
X38373782Y-73214347D01*
X38411718Y-73208500D01*
X44971088Y-73208500D01*
X44979658Y-73208792D01*
X45029776Y-73212209D01*
X45029780Y-73212209D01*
X45037352Y-73212725D01*
X45044829Y-73211420D01*
X45044830Y-73211420D01*
X45071308Y-73206799D01*
X45100303Y-73201738D01*
X45106821Y-73200777D01*
X45170242Y-73193102D01*
X45177343Y-73190419D01*
X45179952Y-73189778D01*
X45196262Y-73185315D01*
X45198798Y-73184550D01*
X45206284Y-73183243D01*
X45264800Y-73157556D01*
X45270904Y-73155065D01*
X45323548Y-73135173D01*
X45323549Y-73135172D01*
X45330656Y-73132487D01*
X45336919Y-73128183D01*
X45339285Y-73126946D01*
X45354097Y-73118701D01*
X45356351Y-73117368D01*
X45363305Y-73114315D01*
X45414002Y-73075413D01*
X45419332Y-73071541D01*
X45465720Y-73039661D01*
X45465725Y-73039656D01*
X45471981Y-73035357D01*
X45513436Y-72988829D01*
X45518416Y-72983554D01*
X50857627Y-67644343D01*
X50919939Y-67610317D01*
X50951669Y-67607535D01*
X50989888Y-67609036D01*
X51058263Y-67611723D01*
X51259883Y-67582490D01*
X51265347Y-67580635D01*
X51265352Y-67580634D01*
X51447327Y-67518862D01*
X51447332Y-67518860D01*
X51452799Y-67517004D01*
X51630551Y-67417458D01*
X51787186Y-67287186D01*
X51917458Y-67130551D01*
X52017004Y-66952799D01*
X52018860Y-66947332D01*
X52018862Y-66947327D01*
X52080634Y-66765352D01*
X52080635Y-66765347D01*
X52082490Y-66759883D01*
X52111723Y-66558263D01*
X52113249Y-66500000D01*
X52094608Y-66297126D01*
X52039307Y-66101047D01*
X52028680Y-66079496D01*
X51951756Y-65923510D01*
X51949201Y-65918329D01*
X51930796Y-65893681D01*
X51830758Y-65759715D01*
X51830758Y-65759714D01*
X51827305Y-65755091D01*
X51677703Y-65616800D01*
X51620383Y-65580634D01*
X51510288Y-65511169D01*
X51510283Y-65511167D01*
X51505404Y-65508088D01*
X51316180Y-65432595D01*
X51116366Y-65392849D01*
X51110592Y-65392773D01*
X51110588Y-65392773D01*
X51007452Y-65391424D01*
X50912655Y-65390183D01*
X50906958Y-65391162D01*
X50906957Y-65391162D01*
X50717567Y-65423705D01*
X50711870Y-65424684D01*
X50520734Y-65495198D01*
X50515773Y-65498150D01*
X50515772Y-65498150D01*
X50377130Y-65580634D01*
X50345649Y-65599363D01*
X50192478Y-65733690D01*
X50188911Y-65738215D01*
X50188906Y-65738220D01*
X50102331Y-65848040D01*
X50066351Y-65893681D01*
X49971492Y-66073978D01*
X49911078Y-66268543D01*
X49887132Y-66470859D01*
X49887510Y-66476626D01*
X49892012Y-66545318D01*
X49876508Y-66614601D01*
X49855377Y-66642653D01*
X44743435Y-71754595D01*
X44681123Y-71788621D01*
X44654340Y-71791500D01*
X38415476Y-71791500D01*
X38347355Y-71771498D01*
X38327633Y-71754736D01*
X38327305Y-71755091D01*
X38181943Y-71620719D01*
X38181940Y-71620717D01*
X38177703Y-71616800D01*
X38131675Y-71587759D01*
X38010288Y-71511169D01*
X38010283Y-71511167D01*
X38005404Y-71508088D01*
X37816180Y-71432595D01*
X37616366Y-71392849D01*
X37610592Y-71392773D01*
X37610588Y-71392773D01*
X37507452Y-71391424D01*
X37412655Y-71390183D01*
X37406958Y-71391162D01*
X37406957Y-71391162D01*
X37217567Y-71423705D01*
X37211870Y-71424684D01*
X37020734Y-71495198D01*
X36845649Y-71599363D01*
X36692478Y-71733690D01*
X36688911Y-71738215D01*
X36688906Y-71738220D01*
X36646904Y-71791500D01*
X36566351Y-71893681D01*
X36471492Y-72073978D01*
X36411078Y-72268543D01*
X36387132Y-72470859D01*
X36400457Y-72674151D01*
X36450605Y-72871610D01*
X36535898Y-73056624D01*
X36653479Y-73222997D01*
X36799410Y-73365157D01*
X36804206Y-73368362D01*
X36804209Y-73368364D01*
X36872149Y-73413760D01*
X36968803Y-73478342D01*
X36974106Y-73480620D01*
X36974109Y-73480622D01*
X37038374Y-73508232D01*
X37093067Y-73553500D01*
X37114604Y-73621151D01*
X37096147Y-73689707D01*
X37043556Y-73737401D01*
X36988636Y-73750000D01*
X28812374Y-73750000D01*
X28744253Y-73729998D01*
X28697760Y-73676342D01*
X28686375Y-73623926D01*
X28689717Y-68250000D01*
X31186502Y-68250000D01*
X31206457Y-68478087D01*
X31265716Y-68699243D01*
X31268039Y-68704224D01*
X31268039Y-68704225D01*
X31360151Y-68901762D01*
X31360154Y-68901767D01*
X31362477Y-68906749D01*
X31493802Y-69094300D01*
X31655700Y-69256198D01*
X31660208Y-69259355D01*
X31660211Y-69259357D01*
X31738389Y-69314098D01*
X31843251Y-69387523D01*
X31848233Y-69389846D01*
X31848238Y-69389849D01*
X32045775Y-69481961D01*
X32050757Y-69484284D01*
X32056065Y-69485706D01*
X32056067Y-69485707D01*
X32266598Y-69542119D01*
X32266600Y-69542119D01*
X32271913Y-69543543D01*
X32500000Y-69563498D01*
X32728087Y-69543543D01*
X32733400Y-69542119D01*
X32733402Y-69542119D01*
X32943933Y-69485707D01*
X32943935Y-69485706D01*
X32949243Y-69484284D01*
X32954225Y-69481961D01*
X33151762Y-69389849D01*
X33151767Y-69389846D01*
X33156749Y-69387523D01*
X33261611Y-69314098D01*
X33339789Y-69259357D01*
X33339792Y-69259355D01*
X33344300Y-69256198D01*
X33506198Y-69094300D01*
X33563665Y-69012229D01*
X33619122Y-68967901D01*
X33666878Y-68958500D01*
X41833122Y-68958500D01*
X41901243Y-68978502D01*
X41936335Y-69012229D01*
X41993802Y-69094300D01*
X42155700Y-69256198D01*
X42160208Y-69259355D01*
X42160211Y-69259357D01*
X42238389Y-69314098D01*
X42343251Y-69387523D01*
X42348233Y-69389846D01*
X42348238Y-69389849D01*
X42545775Y-69481961D01*
X42550757Y-69484284D01*
X42556065Y-69485706D01*
X42556067Y-69485707D01*
X42766598Y-69542119D01*
X42766600Y-69542119D01*
X42771913Y-69543543D01*
X43000000Y-69563498D01*
X43228087Y-69543543D01*
X43233400Y-69542119D01*
X43233402Y-69542119D01*
X43443933Y-69485707D01*
X43443935Y-69485706D01*
X43449243Y-69484284D01*
X43454225Y-69481961D01*
X43651762Y-69389849D01*
X43651767Y-69389846D01*
X43656749Y-69387523D01*
X43761611Y-69314098D01*
X43839789Y-69259357D01*
X43839792Y-69259355D01*
X43844300Y-69256198D01*
X44006198Y-69094300D01*
X44137523Y-68906749D01*
X44139846Y-68901767D01*
X44139849Y-68901762D01*
X44231961Y-68704225D01*
X44231961Y-68704224D01*
X44234284Y-68699243D01*
X44293543Y-68478087D01*
X44313498Y-68250000D01*
X44293543Y-68021913D01*
X44234284Y-67800757D01*
X44231961Y-67795775D01*
X44139849Y-67598238D01*
X44139846Y-67598233D01*
X44137523Y-67593251D01*
X44006198Y-67405700D01*
X43844300Y-67243802D01*
X43839792Y-67240645D01*
X43839789Y-67240643D01*
X43761611Y-67185902D01*
X43656749Y-67112477D01*
X43651767Y-67110154D01*
X43651762Y-67110151D01*
X43454225Y-67018039D01*
X43454224Y-67018039D01*
X43449243Y-67015716D01*
X43443935Y-67014294D01*
X43443933Y-67014293D01*
X43233402Y-66957881D01*
X43233400Y-66957881D01*
X43228087Y-66956457D01*
X43000000Y-66936502D01*
X42771913Y-66956457D01*
X42766600Y-66957881D01*
X42766598Y-66957881D01*
X42556067Y-67014293D01*
X42556065Y-67014294D01*
X42550757Y-67015716D01*
X42545776Y-67018039D01*
X42545775Y-67018039D01*
X42348238Y-67110151D01*
X42348233Y-67110154D01*
X42343251Y-67112477D01*
X42238389Y-67185902D01*
X42160211Y-67240643D01*
X42160208Y-67240645D01*
X42155700Y-67243802D01*
X41993802Y-67405700D01*
X41990645Y-67410208D01*
X41990643Y-67410211D01*
X41936335Y-67487771D01*
X41880878Y-67532099D01*
X41833122Y-67541500D01*
X33666878Y-67541500D01*
X33598757Y-67521498D01*
X33563665Y-67487771D01*
X33509357Y-67410211D01*
X33509355Y-67410208D01*
X33506198Y-67405700D01*
X33344300Y-67243802D01*
X33339792Y-67240645D01*
X33339789Y-67240643D01*
X33261611Y-67185902D01*
X33156749Y-67112477D01*
X33151767Y-67110154D01*
X33151762Y-67110151D01*
X32954225Y-67018039D01*
X32954224Y-67018039D01*
X32949243Y-67015716D01*
X32943935Y-67014294D01*
X32943933Y-67014293D01*
X32733402Y-66957881D01*
X32733400Y-66957881D01*
X32728087Y-66956457D01*
X32500000Y-66936502D01*
X32271913Y-66956457D01*
X32266600Y-66957881D01*
X32266598Y-66957881D01*
X32056067Y-67014293D01*
X32056065Y-67014294D01*
X32050757Y-67015716D01*
X32045776Y-67018039D01*
X32045775Y-67018039D01*
X31848238Y-67110151D01*
X31848233Y-67110154D01*
X31843251Y-67112477D01*
X31738389Y-67185902D01*
X31660211Y-67240643D01*
X31660208Y-67240645D01*
X31655700Y-67243802D01*
X31493802Y-67405700D01*
X31362477Y-67593251D01*
X31360154Y-67598233D01*
X31360151Y-67598238D01*
X31268039Y-67795775D01*
X31265716Y-67800757D01*
X31206457Y-68021913D01*
X31186502Y-68250000D01*
X28689717Y-68250000D01*
X28692067Y-64470859D01*
X37387132Y-64470859D01*
X37400457Y-64674151D01*
X37450605Y-64871610D01*
X37535898Y-65056624D01*
X37653479Y-65222997D01*
X37799410Y-65365157D01*
X37804206Y-65368362D01*
X37804209Y-65368364D01*
X37942264Y-65460609D01*
X37968803Y-65478342D01*
X37974106Y-65480620D01*
X37974109Y-65480622D01*
X38063115Y-65518862D01*
X38155987Y-65558763D01*
X38228817Y-65575243D01*
X38349055Y-65602450D01*
X38349060Y-65602451D01*
X38354692Y-65603725D01*
X38360463Y-65603952D01*
X38360465Y-65603952D01*
X38423470Y-65606427D01*
X38558263Y-65611723D01*
X38759883Y-65582490D01*
X38765347Y-65580635D01*
X38765352Y-65580634D01*
X38947327Y-65518862D01*
X38947332Y-65518860D01*
X38952799Y-65517004D01*
X38991737Y-65495198D01*
X39099697Y-65434737D01*
X39130551Y-65417458D01*
X39287186Y-65287186D01*
X39417458Y-65130551D01*
X39517004Y-64952799D01*
X39518860Y-64947332D01*
X39518862Y-64947327D01*
X39580634Y-64765352D01*
X39580635Y-64765347D01*
X39582490Y-64759883D01*
X39611723Y-64558263D01*
X39613249Y-64500000D01*
X39594608Y-64297126D01*
X39539307Y-64101047D01*
X39536754Y-64095871D01*
X39536751Y-64095862D01*
X39507130Y-64035796D01*
X39494940Y-63965854D01*
X39522500Y-63900425D01*
X39581058Y-63860282D01*
X39602054Y-63855374D01*
X39667058Y-63845949D01*
X39754168Y-63833319D01*
X39754172Y-63833318D01*
X39759883Y-63832490D01*
X39765347Y-63830635D01*
X39765352Y-63830634D01*
X39947327Y-63768862D01*
X39947332Y-63768860D01*
X39952799Y-63767004D01*
X40130551Y-63667458D01*
X40287186Y-63537186D01*
X40417458Y-63380551D01*
X40517004Y-63202799D01*
X40518860Y-63197332D01*
X40518862Y-63197327D01*
X40580634Y-63015352D01*
X40580635Y-63015347D01*
X40582490Y-63009883D01*
X40611723Y-62808263D01*
X40613249Y-62750000D01*
X40594608Y-62547126D01*
X40583907Y-62509184D01*
X40584668Y-62438191D01*
X40616082Y-62385888D01*
X57980528Y-45021443D01*
X57986793Y-45015589D01*
X58024664Y-44982552D01*
X58024665Y-44982551D01*
X58030385Y-44977561D01*
X58067136Y-44925271D01*
X58071028Y-44920029D01*
X58110476Y-44869718D01*
X58113600Y-44862799D01*
X58114988Y-44860507D01*
X58123357Y-44845835D01*
X58124622Y-44843475D01*
X58128990Y-44837261D01*
X58152203Y-44777723D01*
X58154759Y-44771642D01*
X58177918Y-44720352D01*
X58181045Y-44713427D01*
X58182430Y-44705954D01*
X58183234Y-44703388D01*
X58187855Y-44687165D01*
X58188520Y-44684573D01*
X58191282Y-44677491D01*
X58199622Y-44614139D01*
X58200654Y-44607623D01*
X58210911Y-44552281D01*
X58212295Y-44544814D01*
X58208709Y-44482620D01*
X58208500Y-44475367D01*
X58208500Y-26911718D01*
X58228502Y-26843597D01*
X58253928Y-26814846D01*
X58287186Y-26787186D01*
X58417458Y-26630551D01*
X58517004Y-26452799D01*
X58518860Y-26447332D01*
X58518862Y-26447327D01*
X58580634Y-26265352D01*
X58580635Y-26265347D01*
X58582490Y-26259883D01*
X58611723Y-26058263D01*
X58613249Y-26000000D01*
X58597405Y-25827568D01*
X58595137Y-25802880D01*
X58595136Y-25802877D01*
X58594608Y-25797126D01*
X58539307Y-25601047D01*
X58528680Y-25579496D01*
X58451756Y-25423510D01*
X58449201Y-25418329D01*
X58430796Y-25393681D01*
X58330758Y-25259715D01*
X58330758Y-25259714D01*
X58327305Y-25255091D01*
X58203333Y-25140492D01*
X58181943Y-25120719D01*
X58181940Y-25120717D01*
X58177703Y-25116800D01*
X58131675Y-25087759D01*
X58010288Y-25011169D01*
X58010283Y-25011167D01*
X58005404Y-25008088D01*
X57816180Y-24932595D01*
X57616366Y-24892849D01*
X57610592Y-24892773D01*
X57610588Y-24892773D01*
X57507452Y-24891424D01*
X57412655Y-24890183D01*
X57406958Y-24891162D01*
X57406957Y-24891162D01*
X57264538Y-24915634D01*
X57211870Y-24924684D01*
X57020734Y-24995198D01*
X56845649Y-25099363D01*
X56692478Y-25233690D01*
X56688911Y-25238215D01*
X56688906Y-25238220D01*
X56615225Y-25331685D01*
X56566351Y-25393681D01*
X56471492Y-25573978D01*
X56411078Y-25768543D01*
X56387132Y-25970859D01*
X56400457Y-26174151D01*
X56450605Y-26371610D01*
X56535898Y-26556624D01*
X56653479Y-26722997D01*
X56657613Y-26727024D01*
X56753422Y-26820357D01*
X56788259Y-26882218D01*
X56791500Y-26910611D01*
X56791500Y-44154340D01*
X56771498Y-44222461D01*
X56754595Y-44243435D01*
X39423595Y-61574435D01*
X39361283Y-61608461D01*
X39290468Y-61603396D01*
X39233632Y-61560849D01*
X39208821Y-61494329D01*
X39208500Y-61485340D01*
X39208500Y-60595660D01*
X39228502Y-60527539D01*
X39245405Y-60506565D01*
X55480520Y-44271450D01*
X55486785Y-44265596D01*
X55524660Y-44232555D01*
X55530385Y-44227561D01*
X55567114Y-44175300D01*
X55571046Y-44170005D01*
X55605791Y-44125694D01*
X55610477Y-44119718D01*
X55613602Y-44112796D01*
X55614964Y-44110548D01*
X55623368Y-44095815D01*
X55624622Y-44093476D01*
X55628990Y-44087261D01*
X55631749Y-44080185D01*
X55631751Y-44080181D01*
X55652200Y-44027731D01*
X55654749Y-44021666D01*
X55681045Y-43963427D01*
X55682429Y-43955962D01*
X55683226Y-43953418D01*
X55687859Y-43937152D01*
X55688521Y-43934572D01*
X55691282Y-43927491D01*
X55699622Y-43864143D01*
X55700653Y-43857629D01*
X55712296Y-43794813D01*
X55708709Y-43732607D01*
X55708500Y-43725353D01*
X55708500Y-26911718D01*
X55728502Y-26843597D01*
X55753928Y-26814846D01*
X55787186Y-26787186D01*
X55917458Y-26630551D01*
X56017004Y-26452799D01*
X56018860Y-26447332D01*
X56018862Y-26447327D01*
X56080634Y-26265352D01*
X56080635Y-26265347D01*
X56082490Y-26259883D01*
X56111723Y-26058263D01*
X56113249Y-26000000D01*
X56097405Y-25827568D01*
X56095137Y-25802880D01*
X56095136Y-25802877D01*
X56094608Y-25797126D01*
X56039307Y-25601047D01*
X56028680Y-25579496D01*
X55951756Y-25423510D01*
X55949201Y-25418329D01*
X55930796Y-25393681D01*
X55830758Y-25259715D01*
X55830758Y-25259714D01*
X55827305Y-25255091D01*
X55703333Y-25140492D01*
X55681943Y-25120719D01*
X55681940Y-25120717D01*
X55677703Y-25116800D01*
X55631675Y-25087759D01*
X55510288Y-25011169D01*
X55510283Y-25011167D01*
X55505404Y-25008088D01*
X55316180Y-24932595D01*
X55116366Y-24892849D01*
X55110592Y-24892773D01*
X55110588Y-24892773D01*
X55007452Y-24891424D01*
X54912655Y-24890183D01*
X54906958Y-24891162D01*
X54906957Y-24891162D01*
X54764538Y-24915634D01*
X54711870Y-24924684D01*
X54520734Y-24995198D01*
X54345649Y-25099363D01*
X54192478Y-25233690D01*
X54188911Y-25238215D01*
X54188906Y-25238220D01*
X54115225Y-25331685D01*
X54066351Y-25393681D01*
X53971492Y-25573978D01*
X53911078Y-25768543D01*
X53887132Y-25970859D01*
X53900457Y-26174151D01*
X53950605Y-26371610D01*
X54035898Y-26556624D01*
X54153479Y-26722997D01*
X54157613Y-26727024D01*
X54253422Y-26820357D01*
X54288259Y-26882218D01*
X54291500Y-26910611D01*
X54291500Y-43404340D01*
X54271498Y-43472461D01*
X54254595Y-43493435D01*
X38019480Y-59728550D01*
X38013215Y-59734404D01*
X37969615Y-59772439D01*
X37965248Y-59778653D01*
X37932872Y-59824719D01*
X37928939Y-59830014D01*
X37889524Y-59880282D01*
X37886401Y-59887198D01*
X37885017Y-59889484D01*
X37876643Y-59904165D01*
X37875378Y-59906525D01*
X37871010Y-59912739D01*
X37868250Y-59919818D01*
X37868249Y-59919820D01*
X37847798Y-59972275D01*
X37845247Y-59978344D01*
X37818955Y-60036573D01*
X37817571Y-60044040D01*
X37816770Y-60046595D01*
X37812141Y-60062848D01*
X37811478Y-60065428D01*
X37808718Y-60072509D01*
X37807727Y-60080040D01*
X37807726Y-60080042D01*
X37800379Y-60135852D01*
X37799348Y-60142359D01*
X37787704Y-60205186D01*
X37788141Y-60212766D01*
X37788141Y-60212767D01*
X37791291Y-60267392D01*
X37791500Y-60274646D01*
X37791500Y-63589760D01*
X37771498Y-63657881D01*
X37748577Y-63684492D01*
X37696824Y-63729878D01*
X37696820Y-63729882D01*
X37692478Y-63733690D01*
X37566351Y-63893681D01*
X37563662Y-63898792D01*
X37563660Y-63898795D01*
X37553383Y-63918329D01*
X37471492Y-64073978D01*
X37411078Y-64268543D01*
X37387132Y-64470859D01*
X28692067Y-64470859D01*
X28716801Y-24700000D01*
X34434155Y-24700000D01*
X34453500Y-24921114D01*
X34454924Y-24926427D01*
X34454924Y-24926429D01*
X34505934Y-25116800D01*
X34510947Y-25135510D01*
X34513269Y-25140490D01*
X34513270Y-25140492D01*
X34602425Y-25331685D01*
X34602428Y-25331690D01*
X34604751Y-25336672D01*
X34607907Y-25341179D01*
X34607908Y-25341181D01*
X34661928Y-25418329D01*
X34732061Y-25518490D01*
X34889010Y-25675439D01*
X34893518Y-25678596D01*
X34893521Y-25678598D01*
X34969187Y-25731580D01*
X35070827Y-25802749D01*
X35075809Y-25805072D01*
X35075814Y-25805075D01*
X35124051Y-25827568D01*
X35271990Y-25896553D01*
X35277298Y-25897975D01*
X35277300Y-25897976D01*
X35481071Y-25952576D01*
X35481073Y-25952576D01*
X35486386Y-25954000D01*
X35707500Y-25973345D01*
X35928614Y-25954000D01*
X35933927Y-25952576D01*
X35933929Y-25952576D01*
X36137700Y-25897976D01*
X36137702Y-25897975D01*
X36143010Y-25896553D01*
X36290949Y-25827568D01*
X36339186Y-25805075D01*
X36339191Y-25805072D01*
X36344173Y-25802749D01*
X36445813Y-25731580D01*
X36521479Y-25678598D01*
X36521482Y-25678596D01*
X36525990Y-25675439D01*
X36682939Y-25518490D01*
X36753073Y-25418329D01*
X36807092Y-25341181D01*
X36807093Y-25341179D01*
X36810249Y-25336672D01*
X36812572Y-25331690D01*
X36812575Y-25331685D01*
X36863305Y-25222894D01*
X36910223Y-25169609D01*
X36978500Y-25150148D01*
X37046460Y-25170690D01*
X37091695Y-25222894D01*
X37142425Y-25331685D01*
X37142428Y-25331690D01*
X37144751Y-25336672D01*
X37147907Y-25341179D01*
X37147908Y-25341181D01*
X37201928Y-25418329D01*
X37272061Y-25518490D01*
X37429010Y-25675439D01*
X37433518Y-25678596D01*
X37433521Y-25678598D01*
X37509187Y-25731580D01*
X37610827Y-25802749D01*
X37615809Y-25805072D01*
X37615814Y-25805075D01*
X37664051Y-25827568D01*
X37811990Y-25896553D01*
X37817298Y-25897975D01*
X37817300Y-25897976D01*
X38021071Y-25952576D01*
X38021073Y-25952576D01*
X38026386Y-25954000D01*
X38247500Y-25973345D01*
X38468614Y-25954000D01*
X38473927Y-25952576D01*
X38473929Y-25952576D01*
X38677700Y-25897976D01*
X38677702Y-25897975D01*
X38683010Y-25896553D01*
X38830949Y-25827568D01*
X38879186Y-25805075D01*
X38879191Y-25805072D01*
X38884173Y-25802749D01*
X38985813Y-25731580D01*
X39061479Y-25678598D01*
X39061482Y-25678596D01*
X39065990Y-25675439D01*
X39222939Y-25518490D01*
X39293073Y-25418329D01*
X39347092Y-25341181D01*
X39347093Y-25341179D01*
X39350249Y-25336672D01*
X39352572Y-25331690D01*
X39352575Y-25331685D01*
X39403305Y-25222894D01*
X39450223Y-25169609D01*
X39518500Y-25150148D01*
X39586460Y-25170690D01*
X39631695Y-25222894D01*
X39682425Y-25331685D01*
X39682428Y-25331690D01*
X39684751Y-25336672D01*
X39687907Y-25341179D01*
X39687908Y-25341181D01*
X39741928Y-25418329D01*
X39812061Y-25518490D01*
X39969010Y-25675439D01*
X39973518Y-25678596D01*
X39973521Y-25678598D01*
X40049187Y-25731580D01*
X40150827Y-25802749D01*
X40155809Y-25805072D01*
X40155814Y-25805075D01*
X40204051Y-25827568D01*
X40351990Y-25896553D01*
X40357298Y-25897975D01*
X40357300Y-25897976D01*
X40561071Y-25952576D01*
X40561073Y-25952576D01*
X40566386Y-25954000D01*
X40781444Y-25972815D01*
X40782025Y-25972866D01*
X40787500Y-25973345D01*
X40790818Y-25973055D01*
X40858296Y-25992868D01*
X40904789Y-26046524D01*
X40914893Y-26116798D01*
X40891001Y-26174431D01*
X40852271Y-26226108D01*
X40852270Y-26226110D01*
X40846885Y-26233295D01*
X40795755Y-26369684D01*
X40789000Y-26431866D01*
X40789000Y-26444708D01*
X40768998Y-26512829D01*
X40715342Y-26559322D01*
X40645068Y-26569426D01*
X40580488Y-26539932D01*
X40559787Y-26516979D01*
X40496098Y-26426021D01*
X40496096Y-26426018D01*
X40492939Y-26421510D01*
X40335990Y-26264561D01*
X40331482Y-26261404D01*
X40331479Y-26261402D01*
X40207271Y-26174431D01*
X40154173Y-26137251D01*
X40149191Y-26134928D01*
X40149186Y-26134925D01*
X39957992Y-26045770D01*
X39957991Y-26045769D01*
X39953010Y-26043447D01*
X39947702Y-26042025D01*
X39947700Y-26042024D01*
X39743929Y-25987424D01*
X39743927Y-25987424D01*
X39738614Y-25986000D01*
X39517500Y-25966655D01*
X39296386Y-25986000D01*
X39291073Y-25987424D01*
X39291071Y-25987424D01*
X39087300Y-26042024D01*
X39087298Y-26042025D01*
X39081990Y-26043447D01*
X39077010Y-26045769D01*
X39077008Y-26045770D01*
X38885815Y-26134925D01*
X38885810Y-26134928D01*
X38880828Y-26137251D01*
X38876321Y-26140407D01*
X38876319Y-26140408D01*
X38703521Y-26261402D01*
X38703518Y-26261404D01*
X38699010Y-26264561D01*
X38542061Y-26421510D01*
X38538904Y-26426018D01*
X38538902Y-26426021D01*
X38520152Y-26452799D01*
X38414751Y-26603328D01*
X38412428Y-26608310D01*
X38412425Y-26608315D01*
X38361695Y-26717106D01*
X38314777Y-26770391D01*
X38246500Y-26789852D01*
X38178540Y-26769310D01*
X38133305Y-26717106D01*
X38082575Y-26608315D01*
X38082572Y-26608310D01*
X38080249Y-26603328D01*
X37974848Y-26452799D01*
X37956098Y-26426021D01*
X37956096Y-26426018D01*
X37952939Y-26421510D01*
X37795990Y-26264561D01*
X37791482Y-26261404D01*
X37791479Y-26261402D01*
X37667271Y-26174431D01*
X37614173Y-26137251D01*
X37609191Y-26134928D01*
X37609186Y-26134925D01*
X37417992Y-26045770D01*
X37417991Y-26045769D01*
X37413010Y-26043447D01*
X37407702Y-26042025D01*
X37407700Y-26042024D01*
X37203929Y-25987424D01*
X37203927Y-25987424D01*
X37198614Y-25986000D01*
X36977500Y-25966655D01*
X36756386Y-25986000D01*
X36751073Y-25987424D01*
X36751071Y-25987424D01*
X36547300Y-26042024D01*
X36547298Y-26042025D01*
X36541990Y-26043447D01*
X36537010Y-26045769D01*
X36537008Y-26045770D01*
X36345815Y-26134925D01*
X36345810Y-26134928D01*
X36340828Y-26137251D01*
X36336321Y-26140407D01*
X36336319Y-26140408D01*
X36163521Y-26261402D01*
X36163518Y-26261404D01*
X36159010Y-26264561D01*
X36002061Y-26421510D01*
X35998904Y-26426018D01*
X35998902Y-26426021D01*
X35980152Y-26452799D01*
X35874751Y-26603328D01*
X35872428Y-26608310D01*
X35872425Y-26608315D01*
X35789016Y-26787186D01*
X35780947Y-26804490D01*
X35779525Y-26809798D01*
X35779524Y-26809800D01*
X35766756Y-26857451D01*
X35723500Y-27018886D01*
X35704155Y-27240000D01*
X35723500Y-27461114D01*
X35780947Y-27675510D01*
X35783269Y-27680490D01*
X35783270Y-27680492D01*
X35872425Y-27871685D01*
X35872428Y-27871690D01*
X35874751Y-27876672D01*
X35877907Y-27881179D01*
X35877908Y-27881181D01*
X35994810Y-28048134D01*
X36002061Y-28058490D01*
X36159010Y-28215439D01*
X36163518Y-28218596D01*
X36163521Y-28218598D01*
X36203662Y-28246705D01*
X36340827Y-28342749D01*
X36345809Y-28345072D01*
X36345814Y-28345075D01*
X36537008Y-28434230D01*
X36541990Y-28436553D01*
X36547298Y-28437975D01*
X36547300Y-28437976D01*
X36751071Y-28492576D01*
X36751073Y-28492576D01*
X36756386Y-28494000D01*
X36977500Y-28513345D01*
X37198614Y-28494000D01*
X37203927Y-28492576D01*
X37203929Y-28492576D01*
X37407700Y-28437976D01*
X37407702Y-28437975D01*
X37413010Y-28436553D01*
X37417992Y-28434230D01*
X37609186Y-28345075D01*
X37609191Y-28345072D01*
X37614173Y-28342749D01*
X37751338Y-28246705D01*
X37791479Y-28218598D01*
X37791482Y-28218596D01*
X37795990Y-28215439D01*
X37952939Y-28058490D01*
X37960191Y-28048134D01*
X38077092Y-27881181D01*
X38077093Y-27881179D01*
X38080249Y-27876672D01*
X38082572Y-27871690D01*
X38082575Y-27871685D01*
X38133305Y-27762894D01*
X38180223Y-27709609D01*
X38248500Y-27690148D01*
X38316460Y-27710690D01*
X38361695Y-27762894D01*
X38412425Y-27871685D01*
X38412428Y-27871690D01*
X38414751Y-27876672D01*
X38417907Y-27881179D01*
X38417908Y-27881181D01*
X38534810Y-28048134D01*
X38542061Y-28058490D01*
X38699010Y-28215439D01*
X38703518Y-28218596D01*
X38703521Y-28218598D01*
X38743662Y-28246705D01*
X38880827Y-28342749D01*
X38885809Y-28345072D01*
X38885814Y-28345075D01*
X39077008Y-28434230D01*
X39081990Y-28436553D01*
X39087298Y-28437975D01*
X39087300Y-28437976D01*
X39291071Y-28492576D01*
X39291073Y-28492576D01*
X39296386Y-28494000D01*
X39517500Y-28513345D01*
X39738614Y-28494000D01*
X39743927Y-28492576D01*
X39743929Y-28492576D01*
X39947700Y-28437976D01*
X39947702Y-28437975D01*
X39953010Y-28436553D01*
X39957992Y-28434230D01*
X40149186Y-28345075D01*
X40149191Y-28345072D01*
X40154173Y-28342749D01*
X40291338Y-28246705D01*
X40331479Y-28218598D01*
X40331482Y-28218596D01*
X40335990Y-28215439D01*
X40492939Y-28058490D01*
X40500191Y-28048134D01*
X40559787Y-27963021D01*
X40615244Y-27918693D01*
X40685863Y-27911384D01*
X40749224Y-27943415D01*
X40785209Y-28004616D01*
X40789000Y-28035292D01*
X40789000Y-28048134D01*
X40795755Y-28110316D01*
X40846885Y-28246705D01*
X40934239Y-28363261D01*
X41050795Y-28450615D01*
X41187184Y-28501745D01*
X41249366Y-28508500D01*
X42865634Y-28508500D01*
X42927816Y-28501745D01*
X43064205Y-28450615D01*
X43180761Y-28363261D01*
X43268115Y-28246705D01*
X43319245Y-28110316D01*
X43326000Y-28048134D01*
X43326000Y-26431866D01*
X43319245Y-26369684D01*
X43268115Y-26233295D01*
X43180761Y-26116739D01*
X43064205Y-26029385D01*
X42927816Y-25978255D01*
X42865634Y-25971500D01*
X41582792Y-25971500D01*
X41514671Y-25951498D01*
X41468178Y-25897842D01*
X41458074Y-25827568D01*
X41487568Y-25762988D01*
X41510521Y-25742287D01*
X41601479Y-25678598D01*
X41601482Y-25678596D01*
X41605990Y-25675439D01*
X41762939Y-25518490D01*
X41833073Y-25418329D01*
X41887092Y-25341181D01*
X41887093Y-25341179D01*
X41890249Y-25336672D01*
X41892572Y-25331690D01*
X41892575Y-25331685D01*
X41981730Y-25140492D01*
X41981731Y-25140490D01*
X41984053Y-25135510D01*
X41989067Y-25116800D01*
X42040076Y-24926429D01*
X42040076Y-24926427D01*
X42041500Y-24921114D01*
X42060845Y-24700000D01*
X42041500Y-24478886D01*
X41984053Y-24264490D01*
X41943305Y-24177106D01*
X41892575Y-24068315D01*
X41892572Y-24068310D01*
X41890249Y-24063328D01*
X41762939Y-23881510D01*
X41605990Y-23724561D01*
X41601482Y-23721404D01*
X41601479Y-23721402D01*
X41525813Y-23668420D01*
X41424173Y-23597251D01*
X41419191Y-23594928D01*
X41419186Y-23594925D01*
X41227992Y-23505770D01*
X41227991Y-23505769D01*
X41223010Y-23503447D01*
X41217702Y-23502025D01*
X41217700Y-23502024D01*
X41013929Y-23447424D01*
X41013927Y-23447424D01*
X41008614Y-23446000D01*
X40787500Y-23426655D01*
X40566386Y-23446000D01*
X40561073Y-23447424D01*
X40561071Y-23447424D01*
X40357300Y-23502024D01*
X40357298Y-23502025D01*
X40351990Y-23503447D01*
X40347010Y-23505769D01*
X40347008Y-23505770D01*
X40155815Y-23594925D01*
X40155810Y-23594928D01*
X40150828Y-23597251D01*
X40146321Y-23600407D01*
X40146319Y-23600408D01*
X39973521Y-23721402D01*
X39973518Y-23721404D01*
X39969010Y-23724561D01*
X39812061Y-23881510D01*
X39684751Y-24063328D01*
X39682428Y-24068310D01*
X39682425Y-24068315D01*
X39631695Y-24177106D01*
X39584777Y-24230391D01*
X39516500Y-24249852D01*
X39448540Y-24229310D01*
X39403305Y-24177106D01*
X39352575Y-24068315D01*
X39352572Y-24068310D01*
X39350249Y-24063328D01*
X39222939Y-23881510D01*
X39065990Y-23724561D01*
X39061482Y-23721404D01*
X39061479Y-23721402D01*
X38985813Y-23668420D01*
X38884173Y-23597251D01*
X38879191Y-23594928D01*
X38879186Y-23594925D01*
X38687992Y-23505770D01*
X38687991Y-23505769D01*
X38683010Y-23503447D01*
X38677702Y-23502025D01*
X38677700Y-23502024D01*
X38473929Y-23447424D01*
X38473927Y-23447424D01*
X38468614Y-23446000D01*
X38247500Y-23426655D01*
X38026386Y-23446000D01*
X38021073Y-23447424D01*
X38021071Y-23447424D01*
X37817300Y-23502024D01*
X37817298Y-23502025D01*
X37811990Y-23503447D01*
X37807010Y-23505769D01*
X37807008Y-23505770D01*
X37615815Y-23594925D01*
X37615810Y-23594928D01*
X37610828Y-23597251D01*
X37606321Y-23600407D01*
X37606319Y-23600408D01*
X37433521Y-23721402D01*
X37433518Y-23721404D01*
X37429010Y-23724561D01*
X37272061Y-23881510D01*
X37144751Y-24063328D01*
X37142428Y-24068310D01*
X37142425Y-24068315D01*
X37091695Y-24177106D01*
X37044777Y-24230391D01*
X36976500Y-24249852D01*
X36908540Y-24229310D01*
X36863305Y-24177106D01*
X36812575Y-24068315D01*
X36812572Y-24068310D01*
X36810249Y-24063328D01*
X36682939Y-23881510D01*
X36525990Y-23724561D01*
X36521482Y-23721404D01*
X36521479Y-23721402D01*
X36445813Y-23668420D01*
X36344173Y-23597251D01*
X36339191Y-23594928D01*
X36339186Y-23594925D01*
X36147992Y-23505770D01*
X36147991Y-23505769D01*
X36143010Y-23503447D01*
X36137702Y-23502025D01*
X36137700Y-23502024D01*
X35933929Y-23447424D01*
X35933927Y-23447424D01*
X35928614Y-23446000D01*
X35707500Y-23426655D01*
X35486386Y-23446000D01*
X35481073Y-23447424D01*
X35481071Y-23447424D01*
X35277300Y-23502024D01*
X35277298Y-23502025D01*
X35271990Y-23503447D01*
X35267010Y-23505769D01*
X35267008Y-23505770D01*
X35075815Y-23594925D01*
X35075810Y-23594928D01*
X35070828Y-23597251D01*
X35066321Y-23600407D01*
X35066319Y-23600408D01*
X34893521Y-23721402D01*
X34893518Y-23721404D01*
X34889010Y-23724561D01*
X34732061Y-23881510D01*
X34604751Y-24063328D01*
X34602428Y-24068310D01*
X34602425Y-24068315D01*
X34551695Y-24177106D01*
X34510947Y-24264490D01*
X34453500Y-24478886D01*
X34434155Y-24700000D01*
X28716801Y-24700000D01*
X28720667Y-18484277D01*
X31673235Y-18484277D01*
X31711205Y-18772687D01*
X31712338Y-18776827D01*
X31712338Y-18776829D01*
X31716042Y-18790368D01*
X31787965Y-19053276D01*
X31789649Y-19057224D01*
X31869041Y-19243355D01*
X31902096Y-19320852D01*
X32051485Y-19570462D01*
X32054169Y-19573813D01*
X32054171Y-19573815D01*
X32068822Y-19592102D01*
X32233367Y-19797489D01*
X32444378Y-19997731D01*
X32680613Y-20167483D01*
X32937700Y-20303603D01*
X32941723Y-20305075D01*
X32941727Y-20305077D01*
X32966209Y-20314036D01*
X33210882Y-20403574D01*
X33495104Y-20465544D01*
X33524150Y-20467830D01*
X33720797Y-20483307D01*
X33720804Y-20483307D01*
X33723253Y-20483500D01*
X33880621Y-20483500D01*
X33882757Y-20483354D01*
X33882768Y-20483354D01*
X34093449Y-20468991D01*
X34093455Y-20468990D01*
X34097726Y-20468699D01*
X34101921Y-20467830D01*
X34101923Y-20467830D01*
X34240154Y-20439204D01*
X34382581Y-20409709D01*
X34656795Y-20312605D01*
X34915293Y-20179184D01*
X34918794Y-20176723D01*
X34918798Y-20176721D01*
X35034292Y-20095550D01*
X35153292Y-20011915D01*
X35366388Y-19813894D01*
X35377395Y-19800447D01*
X35547923Y-19592102D01*
X35550639Y-19588784D01*
X35702633Y-19340752D01*
X35711369Y-19320852D01*
X35777004Y-19171330D01*
X35819559Y-19074386D01*
X35820772Y-19070130D01*
X35853843Y-18954032D01*
X35899254Y-18794616D01*
X35901786Y-18776829D01*
X35939637Y-18510870D01*
X35940242Y-18506619D01*
X35940359Y-18484277D01*
X41833235Y-18484277D01*
X41871205Y-18772687D01*
X41872338Y-18776827D01*
X41872338Y-18776829D01*
X41876042Y-18790368D01*
X41947965Y-19053276D01*
X41949649Y-19057224D01*
X42029041Y-19243355D01*
X42062096Y-19320852D01*
X42211485Y-19570462D01*
X42214169Y-19573813D01*
X42214171Y-19573815D01*
X42228822Y-19592102D01*
X42393367Y-19797489D01*
X42604378Y-19997731D01*
X42840613Y-20167483D01*
X43097700Y-20303603D01*
X43101723Y-20305075D01*
X43101727Y-20305077D01*
X43126209Y-20314036D01*
X43370882Y-20403574D01*
X43655104Y-20465544D01*
X43684150Y-20467830D01*
X43880797Y-20483307D01*
X43880804Y-20483307D01*
X43883253Y-20483500D01*
X44040621Y-20483500D01*
X44042757Y-20483354D01*
X44042768Y-20483354D01*
X44253449Y-20468991D01*
X44253455Y-20468990D01*
X44257726Y-20468699D01*
X44261921Y-20467830D01*
X44261923Y-20467830D01*
X44400154Y-20439204D01*
X44542581Y-20409709D01*
X44816795Y-20312605D01*
X45075293Y-20179184D01*
X45078794Y-20176723D01*
X45078798Y-20176721D01*
X45194293Y-20095549D01*
X45313292Y-20011915D01*
X45526388Y-19813894D01*
X45537395Y-19800447D01*
X45707923Y-19592102D01*
X45710639Y-19588784D01*
X45862633Y-19340752D01*
X45871369Y-19320852D01*
X45937004Y-19171330D01*
X45979559Y-19074386D01*
X45980772Y-19070130D01*
X46013843Y-18954032D01*
X46059254Y-18794616D01*
X46061786Y-18776829D01*
X46099637Y-18510870D01*
X46100242Y-18506619D01*
X46101393Y-18286773D01*
X46101430Y-18279769D01*
X49209000Y-18279769D01*
X49209300Y-18282825D01*
X49209300Y-18282832D01*
X49210030Y-18290273D01*
X49223420Y-18426833D01*
X49280584Y-18616169D01*
X49373434Y-18790796D01*
X49443791Y-18877062D01*
X49494540Y-18939287D01*
X49494543Y-18939290D01*
X49498435Y-18944062D01*
X49503182Y-18947989D01*
X49503184Y-18947991D01*
X49646075Y-19066201D01*
X49646079Y-19066203D01*
X49650825Y-19070130D01*
X49824799Y-19164198D01*
X50013732Y-19222682D01*
X50019857Y-19223326D01*
X50019858Y-19223326D01*
X50204296Y-19242711D01*
X50204298Y-19242711D01*
X50210425Y-19243355D01*
X50292924Y-19235847D01*
X50401249Y-19225989D01*
X50401252Y-19225988D01*
X50407388Y-19225430D01*
X50413294Y-19223692D01*
X50413298Y-19223691D01*
X50518424Y-19192751D01*
X50597119Y-19169590D01*
X50602577Y-19166737D01*
X50602581Y-19166735D01*
X50693353Y-19119280D01*
X50772390Y-19077960D01*
X50926525Y-18954032D01*
X51053654Y-18802526D01*
X51056621Y-18797128D01*
X51056625Y-18797123D01*
X51145967Y-18634608D01*
X51148933Y-18629213D01*
X51151346Y-18621608D01*
X51206873Y-18446564D01*
X51206873Y-18446563D01*
X51208735Y-18440694D01*
X51226000Y-18286773D01*
X51226000Y-18067138D01*
X51246002Y-17999017D01*
X51299658Y-17952524D01*
X51369932Y-17942420D01*
X51379486Y-17944172D01*
X51383960Y-17945172D01*
X51554043Y-17983190D01*
X51559588Y-17983500D01*
X51692744Y-17983500D01*
X51827537Y-17968857D01*
X51963289Y-17923171D01*
X51992704Y-17913272D01*
X51992706Y-17913271D01*
X51999175Y-17911094D01*
X52154405Y-17817823D01*
X52159362Y-17813135D01*
X52159365Y-17813133D01*
X52281027Y-17698082D01*
X52281029Y-17698080D01*
X52285985Y-17693393D01*
X52289817Y-17687755D01*
X52289820Y-17687751D01*
X52383942Y-17549255D01*
X52387777Y-17543612D01*
X52455030Y-17375466D01*
X52456144Y-17368738D01*
X52456145Y-17368734D01*
X52483493Y-17203539D01*
X52483493Y-17203536D01*
X52484608Y-17196802D01*
X52479703Y-17103198D01*
X56590392Y-17103198D01*
X56590749Y-17110015D01*
X56590749Y-17110019D01*
X56595651Y-17203539D01*
X56599870Y-17284047D01*
X56601681Y-17290620D01*
X56601681Y-17290623D01*
X56646148Y-17452059D01*
X56647961Y-17458641D01*
X56732422Y-17618836D01*
X56736827Y-17624049D01*
X56736830Y-17624053D01*
X56844906Y-17751943D01*
X56844910Y-17751947D01*
X56849313Y-17757157D01*
X56854737Y-17761304D01*
X56854738Y-17761305D01*
X56987757Y-17863006D01*
X56987761Y-17863009D01*
X56993178Y-17867150D01*
X57079872Y-17907576D01*
X57151131Y-17940805D01*
X57151134Y-17940806D01*
X57157308Y-17943685D01*
X57163956Y-17945171D01*
X57163959Y-17945172D01*
X57260186Y-17966681D01*
X57334043Y-17983190D01*
X57339588Y-17983500D01*
X57472744Y-17983500D01*
X57607537Y-17968857D01*
X57682812Y-17943524D01*
X57753753Y-17940754D01*
X57814932Y-17976777D01*
X57846923Y-18040158D01*
X57849000Y-18062943D01*
X57849000Y-18279769D01*
X57849300Y-18282825D01*
X57849300Y-18282832D01*
X57850030Y-18290273D01*
X57863420Y-18426833D01*
X57920584Y-18616169D01*
X58013434Y-18790796D01*
X58083791Y-18877062D01*
X58134540Y-18939287D01*
X58134543Y-18939290D01*
X58138435Y-18944062D01*
X58143182Y-18947989D01*
X58143184Y-18947991D01*
X58286075Y-19066201D01*
X58286079Y-19066203D01*
X58290825Y-19070130D01*
X58464799Y-19164198D01*
X58653732Y-19222682D01*
X58659857Y-19223326D01*
X58659858Y-19223326D01*
X58844296Y-19242711D01*
X58844298Y-19242711D01*
X58850425Y-19243355D01*
X58932924Y-19235847D01*
X59041249Y-19225989D01*
X59041252Y-19225988D01*
X59047388Y-19225430D01*
X59053294Y-19223692D01*
X59053298Y-19223691D01*
X59158424Y-19192751D01*
X59237119Y-19169590D01*
X59242577Y-19166737D01*
X59242581Y-19166735D01*
X59333353Y-19119280D01*
X59412390Y-19077960D01*
X59566525Y-18954032D01*
X59693654Y-18802526D01*
X59696621Y-18797128D01*
X59696625Y-18797123D01*
X59785967Y-18634608D01*
X59788933Y-18629213D01*
X59791346Y-18621608D01*
X59846873Y-18446564D01*
X59846873Y-18446563D01*
X59848735Y-18440694D01*
X59866000Y-18286773D01*
X59866000Y-17080231D01*
X59865314Y-17073227D01*
X59852181Y-16939301D01*
X59851580Y-16933167D01*
X59842325Y-16902511D01*
X59796197Y-16749731D01*
X59794416Y-16743831D01*
X59701566Y-16569204D01*
X59593738Y-16436994D01*
X59580460Y-16420713D01*
X59580457Y-16420710D01*
X59576565Y-16415938D01*
X59570218Y-16410687D01*
X59428925Y-16293799D01*
X59428921Y-16293797D01*
X59424175Y-16289870D01*
X59250201Y-16195802D01*
X59061268Y-16137318D01*
X59055143Y-16136674D01*
X59055142Y-16136674D01*
X58870704Y-16117289D01*
X58870702Y-16117289D01*
X58864575Y-16116645D01*
X58782076Y-16124153D01*
X58673751Y-16134011D01*
X58673748Y-16134012D01*
X58667612Y-16134570D01*
X58661706Y-16136308D01*
X58661702Y-16136309D01*
X58556576Y-16167249D01*
X58477881Y-16190410D01*
X58472423Y-16193263D01*
X58472419Y-16193265D01*
X58400223Y-16231009D01*
X58302610Y-16282040D01*
X58148475Y-16405968D01*
X58100100Y-16463619D01*
X58040993Y-16502944D01*
X57970006Y-16504070D01*
X57927052Y-16482722D01*
X57867243Y-16436994D01*
X57867239Y-16436991D01*
X57861822Y-16432850D01*
X57756686Y-16383825D01*
X57703869Y-16359195D01*
X57703866Y-16359194D01*
X57697692Y-16356315D01*
X57691044Y-16354829D01*
X57691041Y-16354828D01*
X57525994Y-16317936D01*
X57525995Y-16317936D01*
X57520957Y-16316810D01*
X57515412Y-16316500D01*
X57382256Y-16316500D01*
X57247463Y-16331143D01*
X57164109Y-16359195D01*
X57082296Y-16386728D01*
X57082294Y-16386729D01*
X57075825Y-16388906D01*
X56920595Y-16482177D01*
X56915638Y-16486865D01*
X56915635Y-16486867D01*
X56793973Y-16601918D01*
X56789015Y-16606607D01*
X56785183Y-16612245D01*
X56785180Y-16612249D01*
X56700633Y-16736656D01*
X56687223Y-16756388D01*
X56619970Y-16924534D01*
X56618856Y-16931262D01*
X56618855Y-16931266D01*
X56594770Y-17076751D01*
X56590392Y-17103198D01*
X52479703Y-17103198D01*
X52475487Y-17022766D01*
X52475130Y-17015953D01*
X52451804Y-16931266D01*
X52428852Y-16847941D01*
X52427039Y-16841359D01*
X52342578Y-16681164D01*
X52338173Y-16675951D01*
X52338170Y-16675947D01*
X52230094Y-16548057D01*
X52230090Y-16548053D01*
X52225687Y-16542843D01*
X52215451Y-16535017D01*
X52087243Y-16436994D01*
X52087239Y-16436991D01*
X52081822Y-16432850D01*
X51976686Y-16383825D01*
X51923869Y-16359195D01*
X51923866Y-16359194D01*
X51917692Y-16356315D01*
X51911044Y-16354829D01*
X51911041Y-16354828D01*
X51745994Y-16317936D01*
X51745995Y-16317936D01*
X51740957Y-16316810D01*
X51735412Y-16316500D01*
X51602256Y-16316500D01*
X51467463Y-16331143D01*
X51384109Y-16359195D01*
X51302296Y-16386728D01*
X51302294Y-16386729D01*
X51295825Y-16388906D01*
X51140595Y-16482177D01*
X51140171Y-16481472D01*
X51078980Y-16504762D01*
X51009507Y-16490135D01*
X50971508Y-16458782D01*
X50950358Y-16432850D01*
X50936565Y-16415938D01*
X50930218Y-16410687D01*
X50788925Y-16293799D01*
X50788921Y-16293797D01*
X50784175Y-16289870D01*
X50610201Y-16195802D01*
X50421268Y-16137318D01*
X50415143Y-16136674D01*
X50415142Y-16136674D01*
X50230704Y-16117289D01*
X50230702Y-16117289D01*
X50224575Y-16116645D01*
X50142076Y-16124153D01*
X50033751Y-16134011D01*
X50033748Y-16134012D01*
X50027612Y-16134570D01*
X50021706Y-16136308D01*
X50021702Y-16136309D01*
X49916576Y-16167249D01*
X49837881Y-16190410D01*
X49832423Y-16193263D01*
X49832419Y-16193265D01*
X49760223Y-16231009D01*
X49662610Y-16282040D01*
X49508475Y-16405968D01*
X49381346Y-16557474D01*
X49378379Y-16562872D01*
X49378375Y-16562877D01*
X49310026Y-16687205D01*
X49286067Y-16730787D01*
X49284206Y-16736654D01*
X49284205Y-16736656D01*
X49252907Y-16835320D01*
X49226265Y-16919306D01*
X49209000Y-17073227D01*
X49209000Y-18279769D01*
X46101430Y-18279769D01*
X46101743Y-18220009D01*
X46101743Y-18220003D01*
X46101765Y-18215723D01*
X46063795Y-17927313D01*
X46047881Y-17869139D01*
X46032559Y-17813133D01*
X45987035Y-17646724D01*
X45872904Y-17379148D01*
X45723515Y-17129538D01*
X45708837Y-17111216D01*
X45559990Y-16925425D01*
X45541633Y-16902511D01*
X45330622Y-16702269D01*
X45094387Y-16532517D01*
X44837300Y-16396397D01*
X44833277Y-16394925D01*
X44833273Y-16394923D01*
X44568149Y-16297901D01*
X44568147Y-16297900D01*
X44564118Y-16296426D01*
X44279896Y-16234456D01*
X44236098Y-16231009D01*
X44054203Y-16216693D01*
X44054196Y-16216693D01*
X44051747Y-16216500D01*
X43894379Y-16216500D01*
X43892243Y-16216646D01*
X43892232Y-16216646D01*
X43681551Y-16231009D01*
X43681545Y-16231010D01*
X43677274Y-16231301D01*
X43673079Y-16232170D01*
X43673077Y-16232170D01*
X43657630Y-16235369D01*
X43392419Y-16290291D01*
X43118205Y-16387395D01*
X43114396Y-16389361D01*
X42934569Y-16482177D01*
X42859707Y-16520816D01*
X42856206Y-16523277D01*
X42856202Y-16523279D01*
X42790858Y-16569204D01*
X42621708Y-16688085D01*
X42618567Y-16691004D01*
X42456766Y-16841359D01*
X42408612Y-16886106D01*
X42405898Y-16889422D01*
X42405895Y-16889425D01*
X42302333Y-17015953D01*
X42224361Y-17111216D01*
X42072367Y-17359248D01*
X42070648Y-17363165D01*
X42070646Y-17363168D01*
X42062466Y-17381803D01*
X41955441Y-17625614D01*
X41954265Y-17629742D01*
X41954264Y-17629745D01*
X41934798Y-17698082D01*
X41875746Y-17905384D01*
X41875142Y-17909626D01*
X41875141Y-17909632D01*
X41864638Y-17983431D01*
X41834758Y-18193381D01*
X41834269Y-18286773D01*
X41833536Y-18426833D01*
X41833235Y-18484277D01*
X35940359Y-18484277D01*
X35941393Y-18286773D01*
X35941743Y-18220009D01*
X35941743Y-18220003D01*
X35941765Y-18215723D01*
X35903795Y-17927313D01*
X35887881Y-17869139D01*
X35872559Y-17813133D01*
X35827035Y-17646724D01*
X35712904Y-17379148D01*
X35563515Y-17129538D01*
X35548837Y-17111216D01*
X35399990Y-16925425D01*
X35381633Y-16902511D01*
X35170622Y-16702269D01*
X34934387Y-16532517D01*
X34677300Y-16396397D01*
X34673277Y-16394925D01*
X34673273Y-16394923D01*
X34408149Y-16297901D01*
X34408147Y-16297900D01*
X34404118Y-16296426D01*
X34119896Y-16234456D01*
X34076098Y-16231009D01*
X33894203Y-16216693D01*
X33894196Y-16216693D01*
X33891747Y-16216500D01*
X33734379Y-16216500D01*
X33732243Y-16216646D01*
X33732232Y-16216646D01*
X33521551Y-16231009D01*
X33521545Y-16231010D01*
X33517274Y-16231301D01*
X33513079Y-16232170D01*
X33513077Y-16232170D01*
X33497630Y-16235369D01*
X33232419Y-16290291D01*
X32958205Y-16387395D01*
X32954396Y-16389361D01*
X32774569Y-16482177D01*
X32699707Y-16520816D01*
X32696206Y-16523277D01*
X32696202Y-16523279D01*
X32630858Y-16569204D01*
X32461708Y-16688085D01*
X32458567Y-16691004D01*
X32296766Y-16841359D01*
X32248612Y-16886106D01*
X32245898Y-16889422D01*
X32245895Y-16889425D01*
X32142333Y-17015953D01*
X32064361Y-17111216D01*
X31912367Y-17359248D01*
X31910648Y-17363165D01*
X31910646Y-17363168D01*
X31902466Y-17381803D01*
X31795441Y-17625614D01*
X31794265Y-17629742D01*
X31794264Y-17629745D01*
X31774798Y-17698082D01*
X31715746Y-17905384D01*
X31715142Y-17909626D01*
X31715141Y-17909632D01*
X31704638Y-17983431D01*
X31674758Y-18193381D01*
X31674269Y-18286773D01*
X31673536Y-18426833D01*
X31673235Y-18484277D01*
X28720667Y-18484277D01*
X28722936Y-14835016D01*
X28724436Y-14815710D01*
X28726776Y-14800684D01*
X28726776Y-14800679D01*
X28728157Y-14791810D01*
X28725482Y-14771351D01*
X28724538Y-14749522D01*
X28725097Y-14736735D01*
X28739817Y-14399567D01*
X28740775Y-14388619D01*
X28765000Y-14204608D01*
X28790484Y-14011035D01*
X28792392Y-14000218D01*
X28793143Y-13996833D01*
X28825746Y-13849769D01*
X49209000Y-13849769D01*
X49209300Y-13852825D01*
X49209300Y-13852832D01*
X49210030Y-13860273D01*
X49223420Y-13996833D01*
X49225202Y-14002734D01*
X49225202Y-14002736D01*
X49227710Y-14011043D01*
X49280584Y-14186169D01*
X49373434Y-14360796D01*
X49405055Y-14399567D01*
X49494540Y-14509287D01*
X49494543Y-14509290D01*
X49498435Y-14514062D01*
X49503182Y-14517989D01*
X49503184Y-14517991D01*
X49646075Y-14636201D01*
X49646079Y-14636203D01*
X49650825Y-14640130D01*
X49824799Y-14734198D01*
X50013732Y-14792682D01*
X50019857Y-14793326D01*
X50019858Y-14793326D01*
X50204296Y-14812711D01*
X50204298Y-14812711D01*
X50210425Y-14813355D01*
X50292924Y-14805847D01*
X50401249Y-14795989D01*
X50401252Y-14795988D01*
X50407388Y-14795430D01*
X50413294Y-14793692D01*
X50413298Y-14793691D01*
X50518424Y-14762751D01*
X50597119Y-14739590D01*
X50602577Y-14736737D01*
X50602581Y-14736735D01*
X50693353Y-14689280D01*
X50772390Y-14647960D01*
X50926525Y-14524032D01*
X51053654Y-14372526D01*
X51056621Y-14367128D01*
X51056625Y-14367123D01*
X51145967Y-14204608D01*
X51148933Y-14199213D01*
X51151346Y-14191608D01*
X51206873Y-14016564D01*
X51206873Y-14016563D01*
X51208735Y-14010694D01*
X51226000Y-13856773D01*
X51226000Y-13849769D01*
X57849000Y-13849769D01*
X57849300Y-13852825D01*
X57849300Y-13852832D01*
X57850030Y-13860273D01*
X57863420Y-13996833D01*
X57865202Y-14002734D01*
X57865202Y-14002736D01*
X57867710Y-14011043D01*
X57920584Y-14186169D01*
X58013434Y-14360796D01*
X58045055Y-14399567D01*
X58134540Y-14509287D01*
X58134543Y-14509290D01*
X58138435Y-14514062D01*
X58143182Y-14517989D01*
X58143184Y-14517991D01*
X58286075Y-14636201D01*
X58286079Y-14636203D01*
X58290825Y-14640130D01*
X58464799Y-14734198D01*
X58653732Y-14792682D01*
X58659857Y-14793326D01*
X58659858Y-14793326D01*
X58844296Y-14812711D01*
X58844298Y-14812711D01*
X58850425Y-14813355D01*
X58932924Y-14805847D01*
X59041249Y-14795989D01*
X59041252Y-14795988D01*
X59047388Y-14795430D01*
X59053294Y-14793692D01*
X59053298Y-14793691D01*
X59158424Y-14762751D01*
X59237119Y-14739590D01*
X59242577Y-14736737D01*
X59242581Y-14736735D01*
X59333353Y-14689280D01*
X59412390Y-14647960D01*
X59566525Y-14524032D01*
X59693654Y-14372526D01*
X59696621Y-14367128D01*
X59696625Y-14367123D01*
X59785967Y-14204608D01*
X59788933Y-14199213D01*
X59791346Y-14191608D01*
X59846873Y-14016564D01*
X59846873Y-14016563D01*
X59848735Y-14010694D01*
X59866000Y-13856773D01*
X59866000Y-13150231D01*
X59865314Y-13143227D01*
X59852181Y-13009301D01*
X59851580Y-13003167D01*
X59849234Y-12995395D01*
X59796197Y-12819731D01*
X59794416Y-12813831D01*
X59701566Y-12639204D01*
X59624461Y-12544664D01*
X59580460Y-12490713D01*
X59580457Y-12490710D01*
X59576565Y-12485938D01*
X59570224Y-12480692D01*
X59428925Y-12363799D01*
X59428921Y-12363797D01*
X59424175Y-12359870D01*
X59250201Y-12265802D01*
X59061268Y-12207318D01*
X59055143Y-12206674D01*
X59055142Y-12206674D01*
X58870704Y-12187289D01*
X58870702Y-12187289D01*
X58864575Y-12186645D01*
X58782076Y-12194153D01*
X58673751Y-12204011D01*
X58673748Y-12204012D01*
X58667612Y-12204570D01*
X58661706Y-12206308D01*
X58661702Y-12206309D01*
X58556576Y-12237249D01*
X58477881Y-12260410D01*
X58472423Y-12263263D01*
X58472419Y-12263265D01*
X58381647Y-12310720D01*
X58302610Y-12352040D01*
X58148475Y-12475968D01*
X58021346Y-12627474D01*
X58018379Y-12632872D01*
X58018375Y-12632877D01*
X58014897Y-12639204D01*
X57926067Y-12800787D01*
X57924206Y-12806654D01*
X57924205Y-12806656D01*
X57868127Y-12983436D01*
X57866265Y-12989306D01*
X57849000Y-13143227D01*
X57849000Y-13849769D01*
X51226000Y-13849769D01*
X51226000Y-13150231D01*
X51225314Y-13143227D01*
X51212181Y-13009301D01*
X51211580Y-13003167D01*
X51209234Y-12995395D01*
X51156197Y-12819731D01*
X51154416Y-12813831D01*
X51061566Y-12639204D01*
X50984461Y-12544664D01*
X50940460Y-12490713D01*
X50940457Y-12490710D01*
X50936565Y-12485938D01*
X50930224Y-12480692D01*
X50788925Y-12363799D01*
X50788921Y-12363797D01*
X50784175Y-12359870D01*
X50610201Y-12265802D01*
X50421268Y-12207318D01*
X50415143Y-12206674D01*
X50415142Y-12206674D01*
X50230704Y-12187289D01*
X50230702Y-12187289D01*
X50224575Y-12186645D01*
X50142076Y-12194153D01*
X50033751Y-12204011D01*
X50033748Y-12204012D01*
X50027612Y-12204570D01*
X50021706Y-12206308D01*
X50021702Y-12206309D01*
X49916576Y-12237249D01*
X49837881Y-12260410D01*
X49832423Y-12263263D01*
X49832419Y-12263265D01*
X49741647Y-12310720D01*
X49662610Y-12352040D01*
X49508475Y-12475968D01*
X49381346Y-12627474D01*
X49378379Y-12632872D01*
X49378375Y-12632877D01*
X49374897Y-12639204D01*
X49286067Y-12800787D01*
X49284206Y-12806654D01*
X49284205Y-12806656D01*
X49228127Y-12983436D01*
X49226265Y-12989306D01*
X49209000Y-13143227D01*
X49209000Y-13849769D01*
X28825746Y-13849769D01*
X28874818Y-13628418D01*
X28877663Y-13617801D01*
X28992180Y-13254600D01*
X28995939Y-13244271D01*
X29033615Y-13153313D01*
X29141684Y-12892409D01*
X29146326Y-12882456D01*
X29184882Y-12808392D01*
X29322171Y-12544663D01*
X29327666Y-12535144D01*
X29532289Y-12213949D01*
X29538594Y-12204945D01*
X29770426Y-11902816D01*
X29777491Y-11894396D01*
X30034773Y-11613622D01*
X30042545Y-11605849D01*
X30323335Y-11348551D01*
X30331756Y-11341486D01*
X30633879Y-11109658D01*
X30642883Y-11103353D01*
X30964074Y-10898732D01*
X30973593Y-10893236D01*
X31124075Y-10814899D01*
X31311401Y-10717383D01*
X31321349Y-10712744D01*
X31673211Y-10566998D01*
X31683526Y-10563245D01*
X32046735Y-10448725D01*
X32057352Y-10445880D01*
X32429159Y-10363453D01*
X32439968Y-10361546D01*
X32817553Y-10311836D01*
X32828501Y-10310878D01*
X33170980Y-10295925D01*
X33195857Y-10297305D01*
X33197270Y-10297525D01*
X33199318Y-10297844D01*
X33199320Y-10297844D01*
X33208190Y-10299225D01*
X33217092Y-10298061D01*
X33217094Y-10298061D01*
X33235865Y-10295606D01*
X33239752Y-10295098D01*
X33256087Y-10294034D01*
X60415102Y-10294034D01*
X60434487Y-10295534D01*
G37*
%TD.AperFunction*%
%TD*%
M02*
